<mxfile host="app.diagrams.net" modified="2023-07-13T02:27:35.851Z" agent="Mozilla/5.0 (Macintosh; Intel Mac OS X 10_15_7) AppleWebKit/537.36 (KHTML, like Gecko) Chrome/90.0.4430.212 Safari/537.36" version="21.2.9" etag="95ClEBns68XeORj2E9N8" type="github">
  <diagram name="第 1 页" id="tGcKv7BnZ5Y5Bqw7oWEw">
    <mxGraphModel>
      <root>
        <mxCell id="0" />
        <mxCell id="1" parent="0" />
      </root>
    </mxGraphModel>
  </diagram>
</mxfile>
